<svg xmlns="http://www.w3.org/2000/svg" xmlns:svg="http://www.w3.org/2000/svg" xmlns:xlink="http://www.w3.org/1999/xlink" xml:space="preserve" id="svg176" width="130.81831" height="141.23242" version="1.1" viewBox="0 0 130.81831 141.23242">
  <style id="style_common">
    .trees { fill:#144043 }
    .cement { fill:#c6c2c2 }
    .land { fill:#1f5054 }
    .rock { fill:#dcd5b6 }
    .water { fill:#4a6b96 }
    .wood { fill:#593700 }
    .tarmac { fill:#768089 }
    .gravel { fill:#946d3e }
    .building { fill:#1a2632 }
    .floor { fill:#70777f }
    .locked { fill:#37414c }
    .map_border { fill:none;stroke:#000;stroke-width:2 }
    .fence { fill:none;stroke:#c4e3c3;stroke-width:1 }
    .road_tarmac { fill:none;stroke:#888 }
    .road_gravel { fill:none;stroke:#946d3e }
    .road_small { stroke-width:5 }
    .road_medium { stroke-width:8 }
    .road_large { stroke-width:12 }
    .railroad { fill:none;stroke:#914833;stroke-dasharray:6;stroke-width:3 }
    .powerline { fill:none;stroke:#ffce00;stroke-width:2;stroke-miterlimit:10;stroke-dasharray:6,6 }
    .danger { fill:red;fill-opacity:.4;stroke:red;stroke-dasharray:4,2;stroke-width:2 }
    .danger_small { fill:red;fill-opacity:.4;stroke:red;stroke-dasharray:2,1;stroke-width:1 }
    .task { fill:#000 }
    .stairs { fill:#FFD700 }
    .shadow { filter:drop-shadow(0 0 2px #000) }
  </style>
  <style id="style_factory">
    .wall { fill:none;stroke:#000;stroke-width:0.2; }
  </style>
  <defs id="defs1">
    <path id="stair-1" d="M39.1426 95.2973V106.58h3.0521V95.2973Z"></path>
    <path id="stair-2" d="M30.1617 114.287h-6.5965v3.006h6.5965Z"></path>
    <path id="stair-3" d="M23.7935 120.316h2.8739v1.517h-2.8739Z"></path>
    <path id="stair-4" d="M28.3251 75.1428v3.0709h1.4402v-3.0709Z"></path>
    <path id="stair-7" d="m75.1892 95.2502 9.07.0157-.008 2.9515-9.07-.0157Z"></path>
    <path id="stair-8" d="M87.0874 63.3964v8.3085h2.9758v-8.3085Z"></path>
    <path id="stair-220" d="M86.1828 49.887V39.5518h4.9597V49.887Z"></path>
    <path id="stair-221" d="M98.587 39.1456h2.931v-1.2648h-2.931Z"></path>
    <path id="stair-222" d="M98.4578 9.62181v1.42359H101.4V9.62181Z"></path>
    <path id="stair-223" d="M45.8568 62.7733h1.3624v4.8857h-1.3624Z"></path>
    <path id="stair-224" d="M54.4139 60.0327h1.3622v4.8857h-1.3622Z"></path>
    <path id="stair-69" d="M18.2137 111.316v6.069H20.95v-6.069Zm1.3028 1.166h.1308v3.735h-.1308Z"></path>
    <path id="stair-96" d="M14.176 69.4637v5.8536h2.7363v-5.8536Zm1.3027 1.125h.1308v3.6016h-.1308Z"></path>
    <path id="stair-97" d="M52.0882 93.4709v6.0459h2.7363v-6.0459Zm1.3027 1.162h.1309v3.7202h-.1309Z"></path>
    <path id="stair-100" d="M70.3349 93.4707v6.0463h2.7363v-6.0463Zm1.3027 1.162h.1309v3.7202h-.1309Z"></path>
    <path id="stair-101" d="M96.7289 21.8536h-5.8535V24.59h5.8535Zm-1.125 1.3028v.1308h-3.6016v-.1308Z"></path>
    <path id="stair-129" d="M46.6849 43.5374v6.0547h2.7364v-6.0547Zm1.3028 1.1637h.1308v3.7253h-.1308Z"></path>
    <path id="stair-62" d="M28.0307 29.732h-2.7258v-4.1555h2.7258"></path>
    <path id="stair-127" d="M30.3351 39.7077h-6.3573v3.2048h6.3573Zm-1.5627 1.5258v.1533h-3.3123v-.1533Z"></path>
    <path id="stair-128" d="M30.3351 65.8672h-6.3573v3.2048h6.3573Zm-1.5628 1.5258v.1532H25.46v-.1532Z"></path>
    <path id="stair-63" d="M24.7291 87.3812h2.9143v1.2792h-2.9143"></path>
    <path id="stair-130" d="M24.7418 72.3192h2.9143v1.2792h-2.9143"></path>
    <path id="stair-131" d="m84.0534 42.6737-1.4406.0027.0125 3.7271 1.4405-.0027Z"></path>
    <path id="stair-132" d="M83.3833 39.4151h1.2252v-5.4587h-1.2252Z"></path>
    <path id="stair-140" d="M33.3318 94.6163h-1.2787v2.9043h1.2787Z"></path>
    <path id="stair-141" d="M47.7275 94.6592h-1.2787v2.9043h1.2787Z"></path>
    <path id="stair-155" d="M52.5058 20.887v-3.4477h-1.1721v3.4477Z"></path>
    <path id="stair-226" d="M70.98 25.5491V21.945h-1.1722v3.6041Z"></path>
    <path id="stair-134" d="M92.2973 42.9477v5.8536h3.1411v-5.8536Zm1.4954 1.125h.1502v3.6016h-.1502Z"></path>
    <path id="stair-135" d="M12.0115 65.0487h3.2275v1.3764h-3.2275Z"></path>
    <path id="stair-136" d="M53.6835 6.40033h2.9323v1.32034h-2.9323Z"></path>
    <path id="stair-138" d="M53.1803 30.0761h2.9557v-1.229h-2.9557Z"></path>
    <path id="stair-139" d="M78.1769 37.6569H75.299v1.3571h2.8779Z"></path>
    <path id="stair-143" d="M.147886 74.7243v-2.9255H1.55806v2.9255Z"></path>
  </defs>
  <g id="Basement" class="shadow">
    <g id="Floor-b" class="floor">
      <path d="M78.9593 44.1706h1.526v6.6383h-1.526z"></path>
      <path d="M74.8878 44.1706h1.5261v6.6383h-1.5261z"></path>
      <path d="m94.7441 0-.002 10.1016h.7149v.2851h-.7149l-.002 8.1465h-4.2206v3.4688h-7.8183v5.4628h-7.4414v.9883h-6.1543V12.5664h-8.7852v-.6309h.5039V6.30273h-7.6484v2.92188h4.748v3.34179h-4.748v17.8828h8.9726V41.834h2.9375v9.4336h.3457v.6523H45.6934v4.1856h-19.711V45.1914h7.1406v-5.4766H25.5v1.7012h3.2383v1.7774h-4.7774v25.83h6.6446v.5957H17.7578v2.5957h-.6074v-.3105H12.793v3.9297h-.3008v-.3496H8.13867v1.041H2.9707v-7.2129H.000001v9.1992H12.4922v-.4512h.5996v.4649h4.0586v-.5234h.6191v.4746h3.1797v-6.5723h-1.2031v-.2852h8.0019v-.8574h.2969l.0039 7.7539h2.0606v9.0918h-6.086l.0196 8.2735h-.6719v-1.9981h-5.5879v7.4742h5.5879v-4.398h.6758l.0059 2.5078 6.1367.0293-.0293 14.8199-6.3731-.029v3.026l6.6543.029v.545h-6.4648v4.297h9.1484v-12.629h9.0801V95.248h-3.0528v11.332H33.125V84.8711h12.5684v2.4531h10.205v-8.416h9.2129v5.4902h3.0313v-5.4902h7.0527v12.5684h-6.4492v6.9004h13.8125v-3.6622l-7.3574-.0195v-.5332l14.7031-.0117v4.4082h.9395v.3945h-1.754v1.4829H69.334v4.419h43.439v-4.419H93.7812v-1.4829h-1.7519v-.3945h.8633v-4.4102l9.9624-.0059V72.3574h-2.037V59.8828h-2.0016v.5977h-8.7422v-6.5899h8.7422v.586h2.0016v-.586h2.446V34.8828h.683v-7.3965h-.683V9.2168l-5.9764.00741v2.05229l-.3755-.0074v-.8824h-.4609v-.2851h.4609V2.02344h2.6211V-.000001Zm2.168 12.4136.3755.0074v.5044l3.1914-.0074v11.8144h-3.5669zm0 14.2739h3.5669v8.916h-3.2329v.7715h-9.0215v.4453h-.3203v-.4453h-4.791v-2.6426h-5.877v-.5429h-.4394v-.2266l.4394.0039v-2.5176h19.6758ZM64.123 30.4492h11.1368v2.5l.4863.0039v.2363h-.4863v.543h-1.9493v5.5567h5.8028v.5429H64.123Zm23.7813 8.4942h.3203v.3457h5.5566v.5683h-1.5058v4.4707h3.1621v-5.039h5.0415v12.6308H90.0742v-2.0332h1.0684v-6.8281h-4.959v6.8281h.8769v2.0332H78.668v-9.0742h2.0996V39.832h-.5684v-.5429h7.7051zM68.123 42.8457h8.5938v9.0742h-1.75v1.9707h.7852l-.0157 6.5899h-7.5937v-6.5899h.623v-1.9707h-1.0859v-.6523h.4433ZM55.8984 54.8945h9.2129v8.5606h.4375v.2441h-.4375v11.8731h.4375v.2832h-9.6504Zm-22.8046 3.1934h12.5996v23.8086H33.123l-.041-12.2774h-1.4765v-.5957h1.4883zm34.5878 5.3672h19.3789v5.1562h2.9747v-5.1562h7.8593v8.9023H75.1953v3.4981h-7.5137v-.2832h.461V63.6992h-.461z"></path>
    </g>
    <g id="Stairs-b" class="stairs">
      <g id="Connector-Ground_Floor">
        <use xlink:href="#stair-1"></use>
        <use xlink:href="#stair-2"></use>
        <use xlink:href="#stair-3"></use>
        <use xlink:href="#stair-4"></use>
        <use xlink:href="#stair-7"></use>
        <use xlink:href="#stair-8"></use>
        <use xlink:href="#stair-220"></use>
        <use xlink:href="#stair-221"></use>
        <use xlink:href="#stair-222"></use>
        <use xlink:href="#stair-223"></use>
        <use xlink:href="#stair-224"></use>
        <use xlink:href="#stair-136"></use>
        <use xlink:href="#stair-140"></use>
        <use xlink:href="#stair-128"></use>
        <use xlink:href="#stair-127"></use>
        <use xlink:href="#stair-138"></use>
        <use xlink:href="#stair-139"></use>
        <use xlink:href="#stair-134"></use>
        <use xlink:href="#stair-143"></use>
      </g>
    </g>
    <g id="Wall-b" class="building">
      <path d="M54.5188 81.1404c0 1.986-1.61 3.596-3.5959 3.596-.9538 0-1.8684-.3789-2.5428-1.0533-.6744-.6743-1.0533-1.5889-1.0533-2.5426 0-.9538.3789-1.8685 1.0533-2.5428.6744-.6745 1.589-1.0533 2.5428-1.0533 1.9859 0 3.596 1.61 3.596 3.5961z"></path>
      <path d="M54.5188 58.8772c0 1.9861-1.61 3.5961-3.5959 3.5961-.9538 0-1.8684-.3789-2.5428-1.0533-.6744-.6744-1.0533-1.5891-1.0533-2.5428 0-.9537.3789-1.8684 1.0533-2.5428.6744-.6744 1.589-1.0532 2.5428-1.0532 1.9859 0 3.596 1.61 3.596 3.596z"></path>
      <path d="M54.5188 69.6492c0 1.986-1.61 3.5961-3.5959 3.5961-.9538 0-1.8684-.3789-2.5428-1.0533-.6744-.6744-1.0533-1.5891-1.0533-2.5428 0-.9537.3789-1.8684 1.0533-2.5428.6744-.6744 1.589-1.0533 2.5428-1.0533 1.9859 0 3.596 1.6102 3.596 3.5962z"></path>
      <path d="m91.6997 87.0141 1.4562-6.3482 2.031.4658-1.4564 6.3483z"></path>
      <path d="m94.0096 87.4092.3705-2.1598 2.0536.352-.3704 2.1601z"></path>
      <path d="M89.8545 85.4138h1.6667v1.744h-1.6667z"></path>
      <path d="m90.2605 84.8165.3821-1.7962 1.7358.3692-.3821 1.7962z"></path>
      <path d="M86.4128 87.7751h1.1267v1.1267h-1.1267z"></path>
      <path d="M86.4128 77.8976h1.1267v1.1266h-1.1267z"></path>
      <path d="M100.071 81.293h1.852v1.852h-1.852z"></path>
      <path d="M100.472 83.5926h1.513v2.5466h-1.513z"></path>
      <path d="M99.9795 86.2781h1.8515v1.852h-1.8515z"></path>
    </g>
  </g>
  
  
  
</svg>