<svg xmlns="http://www.w3.org/2000/svg" xmlns:svg="http://www.w3.org/2000/svg" xmlns:xlink="http://www.w3.org/1999/xlink" xml:space="preserve" id="svg176" width="130.81831" height="141.23242" version="1.1" viewBox="0 0 130.81831 141.23242">
  <style id="style_common">
    .trees { fill:#144043 }
    .cement { fill:#c6c2c2 }
    .land { fill:#1f5054 }
    .rock { fill:#dcd5b6 }
    .water { fill:#4a6b96 }
    .wood { fill:#593700 }
    .tarmac { fill:#768089 }
    .gravel { fill:#946d3e }
    .building { fill:#1a2632 }
    .floor { fill:#70777f }
    .locked { fill:#37414c }
    .map_border { fill:none;stroke:#000;stroke-width:2 }
    .fence { fill:none;stroke:#c4e3c3;stroke-width:1 }
    .road_tarmac { fill:none;stroke:#888 }
    .road_gravel { fill:none;stroke:#946d3e }
    .road_small { stroke-width:5 }
    .road_medium { stroke-width:8 }
    .road_large { stroke-width:12 }
    .railroad { fill:none;stroke:#914833;stroke-dasharray:6;stroke-width:3 }
    .powerline { fill:none;stroke:#ffce00;stroke-width:2;stroke-miterlimit:10;stroke-dasharray:6,6 }
    .danger { fill:red;fill-opacity:.4;stroke:red;stroke-dasharray:4,2;stroke-width:2 }
    .danger_small { fill:red;fill-opacity:.4;stroke:red;stroke-dasharray:2,1;stroke-width:1 }
    .task { fill:#000 }
    .stairs { fill:#FFD700 }
    .shadow { filter:drop-shadow(0 0 2px #000) }
  </style>
  <style id="style_factory">
    .wall { fill:none;stroke:#000;stroke-width:0.2; }
  </style>
  <defs id="defs1">
    <path id="stair-1" d="M39.1426 95.2973V106.58h3.0521V95.2973Z"></path>
    <path id="stair-2" d="M30.1617 114.287h-6.5965v3.006h6.5965Z"></path>
    <path id="stair-3" d="M23.7935 120.316h2.8739v1.517h-2.8739Z"></path>
    <path id="stair-4" d="M28.3251 75.1428v3.0709h1.4402v-3.0709Z"></path>
    <path id="stair-7" d="m75.1892 95.2502 9.07.0157-.008 2.9515-9.07-.0157Z"></path>
    <path id="stair-8" d="M87.0874 63.3964v8.3085h2.9758v-8.3085Z"></path>
    <path id="stair-220" d="M86.1828 49.887V39.5518h4.9597V49.887Z"></path>
    <path id="stair-221" d="M98.587 39.1456h2.931v-1.2648h-2.931Z"></path>
    <path id="stair-222" d="M98.4578 9.62181v1.42359H101.4V9.62181Z"></path>
    <path id="stair-223" d="M45.8568 62.7733h1.3624v4.8857h-1.3624Z"></path>
    <path id="stair-224" d="M54.4139 60.0327h1.3622v4.8857h-1.3622Z"></path>
    <path id="stair-69" d="M18.2137 111.316v6.069H20.95v-6.069Zm1.3028 1.166h.1308v3.735h-.1308Z"></path>
    <path id="stair-96" d="M14.176 69.4637v5.8536h2.7363v-5.8536Zm1.3027 1.125h.1308v3.6016h-.1308Z"></path>
    <path id="stair-97" d="M52.0882 93.4709v6.0459h2.7363v-6.0459Zm1.3027 1.162h.1309v3.7202h-.1309Z"></path>
    <path id="stair-100" d="M70.3349 93.4707v6.0463h2.7363v-6.0463Zm1.3027 1.162h.1309v3.7202h-.1309Z"></path>
    <path id="stair-101" d="M96.7289 21.8536h-5.8535V24.59h5.8535Zm-1.125 1.3028v.1308h-3.6016v-.1308Z"></path>
    <path id="stair-129" d="M46.6849 43.5374v6.0547h2.7364v-6.0547Zm1.3028 1.1637h.1308v3.7253h-.1308Z"></path>
    <path id="stair-62" d="M28.0307 29.732h-2.7258v-4.1555h2.7258"></path>
    <path id="stair-127" d="M30.3351 39.7077h-6.3573v3.2048h6.3573Zm-1.5627 1.5258v.1533h-3.3123v-.1533Z"></path>
    <path id="stair-128" d="M30.3351 65.8672h-6.3573v3.2048h6.3573Zm-1.5628 1.5258v.1532H25.46v-.1532Z"></path>
    <path id="stair-63" d="M24.7291 87.3812h2.9143v1.2792h-2.9143"></path>
    <path id="stair-130" d="M24.7418 72.3192h2.9143v1.2792h-2.9143"></path>
    <path id="stair-131" d="m84.0534 42.6737-1.4406.0027.0125 3.7271 1.4405-.0027Z"></path>
    <path id="stair-132" d="M83.3833 39.4151h1.2252v-5.4587h-1.2252Z"></path>
    <path id="stair-140" d="M33.3318 94.6163h-1.2787v2.9043h1.2787Z"></path>
    <path id="stair-141" d="M47.7275 94.6592h-1.2787v2.9043h1.2787Z"></path>
    <path id="stair-155" d="M52.5058 20.887v-3.4477h-1.1721v3.4477Z"></path>
    <path id="stair-226" d="M70.98 25.5491V21.945h-1.1722v3.6041Z"></path>
    <path id="stair-134" d="M92.2973 42.9477v5.8536h3.1411v-5.8536Zm1.4954 1.125h.1502v3.6016h-.1502Z"></path>
    <path id="stair-135" d="M12.0115 65.0487h3.2275v1.3764h-3.2275Z"></path>
    <path id="stair-136" d="M53.6835 6.40033h2.9323v1.32034h-2.9323Z"></path>
    <path id="stair-138" d="M53.1803 30.0761h2.9557v-1.229h-2.9557Z"></path>
    <path id="stair-139" d="M78.1769 37.6569H75.299v1.3571h2.8779Z"></path>
    <path id="stair-143" d="M.147886 74.7243v-2.9255H1.55806v2.9255Z"></path>
  </defs>
  
  <g id="Ground_Floor">
    <g id="Floor" class="floor">
      <path d="M97.2969 2.54101v3.76172H50.082l-.4082 2.95313h8.1621v.29687l-16.4238.0078h-10.375v-.30467h18.2246l.4043-2.95313H25.293v2.95313h4.875v.30469h-4.875v5.50395H1.54492v6.4121H25.293v17.957h4.959v.3437h-5.6836v3.2032h6.5234v2.5273h-4.082v.9121h-.1602v-.9121h-5.7539v4.959h5.7539v-2.8926h.1524l.0098 2.8926h2.3066v.3359h-6.1621v7.5918h6.1055v.2676h-6.1055v7.0566h8.4316v.1153h-6.9804v3.2051h6.6757v.3046H3.35547l-.00391 5.0762h-.45117v-5.1035H.013672v17.7461H2.90039v-11.748h.45117l-.00586 6.5527-.00781 12.5234h-.4375v-2.9941H.039062V121.23H3.31836v4.846h4.7168v-.611h.27929v15.767h6.48435v-20.65h.2852v1.678h15.5879v-2.174h2.5937v-2.328h-1.4883v-.381h1.5645l.0098-11.359.0098-11.4457h5.7793l.0098 6.0277.0098 5.961h3.0137l.0098-5.999.0098-5.9897h4.1113v3.4238h-.1816v-3.2422H42.385v4.7871h3.7383v-.5156h.1816v.5156h10.2754v24.35283h6.4316V99.541l20.3184-.01 20.0957-.01v-2.4492h24.363v-6.4136h-24.363l.006-11.5801h.248v2.3008h2.574V79.418h.318v2.2793h-2.892v4.9668h17.861V74.3984l-2.006.1153-.15-2.6172 1.439-.1016-.207-9.2734-.802-2.4805.548-4.1973 1.071-4.2128-.086-4.3086 4.111-.5723V34.9258h1.367v-6.1504h-4.851v6.7891h-8.522v-.2989h7.828v-6.4414l-19.742-.0195-.01-5.6797.022-5.5605 8.508-.0313h8.476V9.45703h12.283V3.0957h-12.283v-.55469Zm4.2991 6.17969h.953v.6875h-.953v-.1914h-4.3499v1.5273h-.3047v-.4961h-.5723v-.69527h-.3105v-.29687h.3945v-.32422l2.5781-.00977 2.5648-.00977Zm-41.5081.53516h2.1367v.29687h-.7637v.69527h-.6484v-.69527h-.7246zm4.3105 0h1.2969v.29687h-1.2969zm4.045 0h.9902v.29687h-.9902zm3.7382 0H85.832v.29687H72.1816Zm16.4043 0h1.0313v.29687h-1.0313zm3.7774 0h.9961l-.0235.29687h-.9726zm4.5781 2.82224h.3047v14.2305h-.3066l.002-7.1152zm-.002 15.375h.3066v.916h.6524v.8692h-.7012v-.6738h-.2578zm-14.5723 6.086 1.0879.0195.0098 3.0234.0098 2.8516h2.709v10.4531h4.959V39.375h3.2656v.3437h-2.1367v3.1778h3.168v-1.1934h.7597v.1856h-.4355v7.6679h-.2481v-.4336h-3.375v2.1485h3.375v-1.0528h.2481v1.0625h2.9511v.254H84.084v-11.834H73.2891v-3.8535h.3828v3.455h9.3301v-5.3808h-.6348zm-9.0781.002 8.1055.0175v.3633h-7.7227v.9707h-.3828Zm23.6524 1.7246h2.6328v.3047H97.246v1.0781h-.3046zm3.7776 0h4.502v17.3008h-1.793v-.3907h-.801v-.6406h-2.9142v-.2539h3.6232V45.998h-5.8477v-4.1093h-.4219v-.1856h4.0566v.1856h-3.4277v3.9258h5.6407v-3.9258h-1.356v-.1856h1.356v-1.9844h-7.9083v-.3437h1.5137v-1.5664h.3047v1.5664h6.0269v-3.8047h-2.554zm7.467 0h1.917v.2988h-1.548v20.5488h-4.899v3.3496h3.237v.6133h-.366v-.2734h-2.847v.2734h-.237l.002-4.582 2.567-.0098 2.174-.0098zm-71.2564 3.3281h.6895l-.0117.5625-.0098.6211h-4.1778v3.6992h-.3437v-3.6992h-1.6016v-.3438h5.4551zm23.8829 0h.6484v.8105h2.957v.3145h-3.6054zm4.6347.8105h3.9863v.8692h-.8769v11.2539h.8769v.6484h-.8769v11.2168h.8398v.6875h-.8398v11.1778h.8809l-.0118.3339-.0098.334-.4297.0098-.4296.0117v1.1407h-.3046v-1.1446h-.7637v-.6856h.7637V64.0801h-.7247v-.6875h.7247V52.1758h-.7637v-.6485h.7637V40.2734h-.7637v-.5547h-2.041zM.859375 42.8105V69.043H12.0098v-2.6875h5.2754v2.6875h5.6015V50.8496h-2.1172v-5.6484h3.0625v-2.3907ZM33.0762 44.6602h.3437V66.75h-.3437l-.002-3.0039-.002-16.1777zm70.3648 16.2832h.239v2.0488h2.847v-2.0488h.366v2.2773h1.388v5.9922h2.758v5.9004h-4.467v2.7793h-.318v-2.7559h-2.574v3.0528h-.246l.002-5.1348zm-70.3648 7.0273h.3437v.6875l-.039.6855-.0371 10.2442V89.832h-5.1934l.0117-.2207.0117-.2285H33V69.3437h-.5v-.3046h.5762zM68.252 86.7793h.3046v.4199h.877v.6485h-.877v.3046h-.3046v-.3046h-.7637v-.6485h.7637ZM2.90039 95.4395h.45703l-.00977 4.0722-.00977 4.0723h-.4375zm0 9.2145h.4375v5.455h-.4375zm0 6.512h.4375l.00977 3.111.00977 3.1h2.37891v.305H2.90039Zm3.90039 6.211h1.51367v6.791h-.27929v-6.486H6.80078Zm7.99802 0h15.2246v.381H15.084v1.775h-.2852z"></path>
    </g>
    <g id="Ledge" class="cement">
      <path d="M45.9232 52.6504h9.7709V86.759h-9.7709z"></path>
      <path d="M78.8578 43.3248h1.526v6.6383h-1.526z"></path>
      <path d="M73.9744 43.3248h1.5261v6.6383h-1.5261z"></path>
      <path d="M32.9998 69.344v20.0388h-4.8261V69.344Z"></path>
    </g>
    <g id="Obstacles" class="building">
      <path d="M25.9428 22.8974h4.823v1.6977h-4.823z"></path>
      <path d="M62.7873 14.6328h5.37v12.9856h-5.37z"></path>
      <path d="M39.6346 24.0789h1.9084v2.0584h-1.9084z"></path>
      <path d="M70.7864 60.8566h2.7897v5.4957h-2.7897z"></path>
      <path d="m74.3339 61.4759 2.7742.2942-.5795 5.465-2.7741-.2942z"></path>
      <path d="m86.0319 76.9126.9693 2.6159-5.1533 1.9093-.9692-2.6159z"></path>
      <path d="M90.6974 79.7791h2.7897v5.4957h-2.7897z"></path>
      <path d="M95.6012 79.002h2.7897v5.4957h-2.7897z"></path>
      <path d="M89.9603 74.7004h5.1752v2.7991h-5.1752z"></path>
      <path d="M101.151 66.7568h-2.4745v6.1868h2.4745z"></path>
      <path d="m76.1976 89.6127-1.8181-5.2472-1.8127.6281 1.8181 5.2472z"></path>
      <path d="M48.4265 87.6401 43.6257 89.76l-.7341-1.6624 4.8008-2.1199Z"></path>
      <path d="M73.6664 6.36889c.1551.01034 1.893.08275 1.893.08275l-.0429.98138-1.893-.08276z"></path>
      <path d="m22.6859 16.8639-.2002 1.6948-4.8088-.568.2002-1.6948z"></path>
      <path d="m58.8284 51.63 4.8697.02.007-1.6965-4.8697-.02z"></path>
      <path d="m68.1678 46.3304-4.8397-.42-.1455 1.6764 4.8397.42z"></path>
      <path d="m65.158 41.0707-.03 4.8697 1.667.0103.03-4.8697z"></path>
      <path d="M54.0756 14.6328h5.2867v12.9856h-5.2867z"></path>
      <path d="m96.6297 53.5128-.0723.5215.2129.0293-.0351.2481-1.336-.1875-.0156.1172 1.2793.1796-.0742.5333-1.2832-.1797-.0176.125 1.3398.1875-.0312.2207-.211-.0293-.0761.5351.957.1348.0352-.252 2.4257.3399.2559-1.8203-2.4414-.3418.0332-.2285z"></path>
      <path d="m98.2152 64.211.0128-.5264-.2148-.005.0069-.2504 1.3486.0352.002-.1182-1.2914-.0338.0134-.5382 1.2953.0334.003-.1262-1.3525-.0347.0061-.2229.2129.0052.0152-.5403-.9661-.0257-.0065.2544-2.4487-.0634-.0483 1.8376 2.4644.0635-.0071.2308z"></path>
      <path d="m92.0745 55.3838.0128-.5263-.2148-.005.0069-.2504 1.3486.0352.002-.1182-1.2915-.0339.0135-.5382 1.2953.0335.003-.1262-1.3525-.0348.0061-.2228.2129.0052.0152-.5404-.9662-.0256-.0065.2543-2.4486-.0633-.0484 1.8375 2.4644.0635-.0071.2308z"></path>
      <path d="m83.5604 58.8283-.2831-.4439-.1811.1158-.134-.2117 1.1386-.7235-.0643-.0992-1.0904.6928-.2893-.4541 1.0934-.6952-.0679-.1064-1.1416.726-.1193-.1883.1796-.1145-.2891-.4568-.8159.518.1365.2146-2.0671 1.3142.9856 1.5517 2.0802-1.3228.1229.1954z"></path>
      <path d="m33.6298 91.2005.0451.5245.2141-.0186.0206.2497-1.3442.1132.0107.1177 1.2873-.1083.0458.5364-1.2911.1092.0105.1258 1.3481-.1141.0185.2221-.2122.0182.0443.5387.9631-.0806-.0216-.2535 2.4408-.2062-.1539-1.8318-2.4564.2078-.0183-.2302z"></path>
      <path d="m11.6868 107.36-.5058-.146-.0595.206-.2404-.07.3767-1.296-.1137-.032-.3609 1.241-.5171-.15.3614-1.244-.1212-.036-.3773 1.299-.21393-.062.05915-.205-.51875-.152-.27029.928.24433.071-.68345 2.352 1.76494.514.6877-2.367.2214.065z"></path>
      <path d="m112.787 10.9712.053.5238.214-.0217.024.2494-1.343.1324.013.1174 1.285-.1264.054.5356-1.289.1273.012.1258 1.347-.1334.021.222-.212.0212.053.538.961-.0945-.024-.2531 2.437-.241-.18-1.8294-2.454.2429-.021-.2298z"></path>
      <path d="m109.094 7.50718.125-.51139-.209-.05083.06-.24314 1.31.32277.027-.11504-1.254-.30922.128-.52287 1.258.30964.03-.12263-1.313-.32318.053-.21638.207.05061.131-.52459-.939-.23166-.061.24693-2.378-.58546-.441 1.78473 2.394.589-.056.22398z"></path>
      <path d="M78.4809 42.354H80.9v6.3742h-2.4191z"></path>
      <path d="m37.045 66.0973.3993-.3431-.1402-.1628.1905-.1627.8774 1.0248.0891-.0777-.8401-.9814.4085-.3506.843.984.0957-.0823-.8803-1.0274.1695-.1447.1388.1615.4113-.3507-.6282-.7345-.1932.1656-1.5935-1.8603-1.3966 1.1952 1.604 1.8721-.1761.1494z"></path>
      <path d="m9.08853 19.9603.19472-.4891-.1997-.0793.09335-.2325 1.2525.5012.043-.1101-1.19941-.4801.19939-.5 1.20312.481.0466-.1173-1.25626-.5021.08309-.2068.19786.0787.20182-.5014-.89714-.3596-.0944.2364-2.27439-.9095-.68328 1.7065 2.28916.915-.08676.2141z"></path>
      <path d="m44.3641 12.3169-.42.3174.1292.1711-.2001.1504-.8116-1.0783-.0938.0718.777 1.0328-.43.324-.7791-1.035-.1015.0754.8137 1.0806-.1779.1341-.1286-.1702-.4327.3241.5808.7726.2033-.153 1.473 1.9569 1.4694-1.1046-1.4825-1.9693.1847-.1382z"></path>
      <path d="m90.5555 21.9871-.5005.1632.0664.2039-.2382.0771-.416-1.284-.1121.0374.3982 1.2295-.5121.1663-.3994-1.2323-.1205.0382.4172 1.2868-.2119.0688-.0662-.2029-.5146.1656.2975.9196.242-.0784.7551 2.33 1.7491-.5658-.7601-2.3447.2197-.0706z"></path>
      <path d="m124.35 33.4177-.485.203.083.1982-.232.096-.518-1.2455-.109.0462.496 1.1927-.497.2074-.498-1.1961-.116.0484.52 1.2489-.206.0854-.082-.1966-.499.2067.37.8925.235-.0979.942 2.2613 1.697-.7058-.948-2.2757.214-.0877z"></path>
      <path d="m115.461 71.5596 2.686-5.4911 2.141 1.0476-2.686 5.4911z"></path>
      <path d="M116.052 57.6037h6.539v2.4161h-6.539z"></path>
      <path d="M108.483 51.4199h3.176v2.1457h-3.176z"></path>
      <path d="m114.058 49.1221 1.538-1.3686 4.729 5.3136-1.537 1.3686z"></path>
      <path d="M116.66 39.1536v-3.1427h2.146v3.1427z"></path>
      <path d="m118.35 62.7842.118 3.1595 2.082-.078-.118-3.1595z"></path>
    </g>
    <g id="Stairs" class="stairs">
      <g id="Stairs-down">
        <use xlink:href="#stair-1"></use>
        <use xlink:href="#stair-2"></use>
        <use xlink:href="#stair-3"></use>
        <use xlink:href="#stair-4"></use>
        <use xlink:href="#stair-7"></use>
        <use xlink:href="#stair-8"></use>
        <use xlink:href="#stair-220"></use>
        <use xlink:href="#stair-221"></use>
        <use xlink:href="#stair-222"></use>
        <use xlink:href="#stair-223"></use>
        <use xlink:href="#stair-224"></use>
        <use xlink:href="#stair-136"></use>
        <use xlink:href="#stair-140"></use>
        <use xlink:href="#stair-138"></use>
        <use xlink:href="#stair-139"></use>
        <use xlink:href="#stair-143"></use>
      </g>
      <g id="Stairs-up">
        <use xlink:href="#stair-69"></use>
        <use xlink:href="#stair-96"></use>
        <use xlink:href="#stair-97"></use>
        <use xlink:href="#stair-100"></use>
        <use xlink:href="#stair-101"></use>
        <use xlink:href="#stair-129"></use>
        <use xlink:href="#stair-62"></use>
        <use xlink:href="#stair-127"></use>
        <use xlink:href="#stair-128"></use>
        <use xlink:href="#stair-63"></use>
        <use xlink:href="#stair-130"></use>
        <use xlink:href="#stair-131"></use>
        <use xlink:href="#stair-132"></use>
        <use xlink:href="#stair-140"></use>
        <use xlink:href="#stair-141"></use>
        <use xlink:href="#stair-155"></use>
        <use xlink:href="#stair-226"></use>
        <use xlink:href="#stair-135"></use>
      </g>
    </g>
    <g id="Wall" class="building wall">
      <path d="M24.2407 39.3647"></path>
      <path d="M37.668 39.3647"></path>
      <path d="m6.50487 80.1031-.63189-6.1417 2.35588-.2074.55472 6.1408"></path>
      <path d="M8.34696 87.3638h6.09534"></path>
      <path d="M8.34696 89.8332h6.09534"></path>
      <path d="m5.57108 98.2517 11.21682-3.8816"></path>
      <path d="m6.44179 100.659 11.00741-3.9601"></path>
      <path d="M36.8706 34.8869v-6.0873"></path>
      <path d="M39.1856 34.8869v-6.0873"></path>
      <path d="M40.1014 23.4256h6.1734v-6.0192"></path>
      <path d="M40.1014 20.4932h6.1734"></path>
      <path d="M47.5095 23.4256h1.6978v-6.0192"></path>
      <path d="M97.0025 28.5653v5.2185"></path>
      <path d="M97.0025 34.8193v.463"></path>
      <path d="M8.31654 130.115h1.35389"></path>
      <path d="M10.7842 130.115h4.0155"></path>
      <path d="M118.61 9.45737V5.21352"></path>
      <path d="M3.15585 119.686v1.543"></path>
      <path d="M59.064836 99.640383 63.0109 99.6196"></path>
      <path d="M57.951066 99.6196H56.5805"></path>
      <path d="M103.501 95.6653v1.4069"></path>
      <path d="M103.501 90.6578v3.9435"></path>
      <path d="M115.722 94.6341v-3.9763"></path>
      <path d="M115.722 95.5647v1.5075"></path>
      <path d="M25.1925 21.4871v-4.4077"></path>
      <path d="M25.1925 15.9905v-.926"></path>
      <path d="M12.5111 17.0794v4.4077"></path>
      <path d="M12.5111 15.9905v-.926"></path>
      <path d="M57.4232 39.3647H49.089"></path>
      <path d="M58.859 39.3647h1.9516"></path>
      <path d="m43.1765 37.6859 6.0481.7181"></path>
      <path d="m49.4452 36.1282-6.0481-.7181"></path>
      <path d="M32.6109 45.5006h.463"></path>
      <path d="M31.5552 45.5006h-.463"></path>
      <path d="M46.3108 43.2232h-.6173v4.167"></path>
      <path d="M45.6935 49.088v.6173h8.0256v-6.4821"></path>
      <path d="M53.7191 41.8341v-2.4694"></path>
      <path d="M50.7867 46.4643v-7.0996"></path>
      <path d="M47.9305 43.2232h2.778"></path>
      <path d="M118.61 3.95951V3.0928"></path>
      <path d="M89.0201 92.6905v-1.852h12.6559v1.852"></path>
      <path d="M101.676 95.2652v1.852H89.0201v-1.852"></path>
      <path d="M3.15585 104.654v-1.069"></path>
      <path d="M8.32242 117.465h1.34801"></path>
      <path d="M10.7842 117.465h3.9978"></path>
      <path d="M65.6956 9.40402h2.7469"></path>
      <path d="M69.4344 9.40402h2.7469"></path>
      <path d="M85.8323 9.40402h2.7541"></path>
      <path d="M89.6165 9.40402h2.7469"></path>
      <path d="M93.3481 9.40402h2.7101"></path>
      <path d="m3.4764 45.6745-2.3355.0623-.06985-2.6195 6.0379-.161.06938 2.6019-2.61203.0696"></path>
      <path d="M56.5803 111.76084h1.370766"></path>
      <path d="m59.064836 111.78162 3.947064-.0208"></path>
    </g>
    <g id="Building" class="building">
      <path d="M54.5423 81.0805c0 .9415-.374 1.8444-1.0397 2.5101-.6657.6657-1.5686 1.0397-2.5101 1.0397-.9414 0-1.8443-.374-2.51-1.0397-.6657-.6657-1.0397-1.5686-1.0397-2.5101 0-.9414.374-1.8443 1.0397-2.51.6657-.6657 1.5686-1.0397 2.51-1.0397.9415 0 1.8444.374 2.5101 1.0397.6657.6657 1.0397 1.5686 1.0397 2.51z"></path>
      <path d="M54.5423 58.9809c0 .9414-.374 1.8443-1.0397 2.51-.6657.6657-1.5686 1.0397-2.5101 1.0397-.9414 0-1.8443-.374-2.51-1.0397-.6657-.6657-1.0397-1.5686-1.0397-2.51 0-.9415.374-1.8444 1.0397-2.5101.6657-.6657 1.5686-1.0397 2.51-1.0397.9415 0 1.8444.374 2.5101 1.0397.6657.6657 1.0397 1.5686 1.0397 2.5101z"></path>
      <path d="M54.5423 69.6919c0 .9415-.374 1.8444-1.0397 2.5101-.6657.6657-1.5686 1.0397-2.5101 1.0397-.9414 0-1.8443-.374-2.51-1.0397-.6657-.6657-1.0397-1.5686-1.0397-2.5101 0-.9414.374-1.8443 1.0397-2.51.6657-.6657 1.5686-1.0397 2.51-1.0397.9415 0 1.8444.374 2.5101 1.0397.6657.6657 1.0397 1.5686 1.0397 2.51z"></path>
      <path d="M64.1619 58.9808c0 .7675-.3049 1.5035-.8476 2.0462-.5427.5427-1.2787.8476-2.0462.8476-.7675 0-1.5036-.3049-2.0463-.8476s-.8475-1.2787-.8475-2.0462c0-.7675.3048-1.5035.8475-2.0462.5427-.5427 1.2788-.8476 2.0463-.8476.7675 0 1.5035.3049 2.0462.8476.5427.5427.8476 1.2787.8476 2.0462z"></path>
      <path d="M64.1619 81.0805c0 .7675-.3049 1.5037-.8476 2.0463-.5427.5427-1.2787.8475-2.0462.8475-.7675 0-1.5036-.3048-2.0463-.8475-.5427-.5426-.8475-1.2788-.8475-2.0463 0-.7675.3048-1.5035.8475-2.0462.5427-.5427 1.2788-.8476 2.0463-.8476.7675 0 1.5035.3049 2.0462.8476.5427.5427.8476 1.2787.8476 2.0462z"></path>
      <path d="M64.1619 69.6919c0 .7675-.3049 1.5036-.8476 2.0463s-1.2787.8476-2.0462.8476c-.7675 0-1.5036-.3049-2.0463-.8476s-.8475-1.2788-.8475-2.0463c0-.7674.3048-1.5035.8475-2.0462.5427-.5427 1.2788-.8476 2.0463-.8476.7675 0 1.5035.3049 2.0462.8476.5427.5427.8476 1.2788.8476 2.0462z"></path>
      <path d="M76.6871 13.9343v1.8515h-.9179v2.8223h.9179v1.8144h7.0742v-1.8144h5.7168v-2.8223h-5.7168v-1.8515z"></path>
    </g>
  </g>
  
  
</svg>