<svg xmlns="http://www.w3.org/2000/svg" xmlns:svg="http://www.w3.org/2000/svg" xmlns:xlink="http://www.w3.org/1999/xlink" xml:space="preserve" id="svg176" width="130.81831" height="141.23242" version="1.1" viewBox="0 0 130.81831 141.23242">
  <style id="style_common">
    .trees { fill:#144043 }
    .cement { fill:#c6c2c2 }
    .land { fill:#1f5054 }
    .rock { fill:#dcd5b6 }
    .water { fill:#4a6b96 }
    .wood { fill:#593700 }
    .tarmac { fill:#768089 }
    .gravel { fill:#946d3e }
    .building { fill:#1a2632 }
    .floor { fill:#70777f }
    .locked { fill:#37414c }
    .map_border { fill:none;stroke:#000;stroke-width:2 }
    .fence { fill:none;stroke:#c4e3c3;stroke-width:1 }
    .road_tarmac { fill:none;stroke:#888 }
    .road_gravel { fill:none;stroke:#946d3e }
    .road_small { stroke-width:5 }
    .road_medium { stroke-width:8 }
    .road_large { stroke-width:12 }
    .railroad { fill:none;stroke:#914833;stroke-dasharray:6;stroke-width:3 }
    .powerline { fill:none;stroke:#ffce00;stroke-width:2;stroke-miterlimit:10;stroke-dasharray:6,6 }
    .danger { fill:red;fill-opacity:.4;stroke:red;stroke-dasharray:4,2;stroke-width:2 }
    .danger_small { fill:red;fill-opacity:.4;stroke:red;stroke-dasharray:2,1;stroke-width:1 }
    .task { fill:#000 }
    .stairs { fill:#FFD700 }
    .shadow { filter:drop-shadow(0 0 2px #000) }
  </style>
  <style id="style_factory">
    .wall { fill:none;stroke:#000;stroke-width:0.2; }
  </style>
  <defs id="defs1">
    <path id="stair-1" d="M39.1426 95.2973V106.58h3.0521V95.2973Z"></path>
    <path id="stair-2" d="M30.1617 114.287h-6.5965v3.006h6.5965Z"></path>
    <path id="stair-3" d="M23.7935 120.316h2.8739v1.517h-2.8739Z"></path>
    <path id="stair-4" d="M28.3251 75.1428v3.0709h1.4402v-3.0709Z"></path>
    <path id="stair-7" d="m75.1892 95.2502 9.07.0157-.008 2.9515-9.07-.0157Z"></path>
    <path id="stair-8" d="M87.0874 63.3964v8.3085h2.9758v-8.3085Z"></path>
    <path id="stair-220" d="M86.1828 49.887V39.5518h4.9597V49.887Z"></path>
    <path id="stair-221" d="M98.587 39.1456h2.931v-1.2648h-2.931Z"></path>
    <path id="stair-222" d="M98.4578 9.62181v1.42359H101.4V9.62181Z"></path>
    <path id="stair-223" d="M45.8568 62.7733h1.3624v4.8857h-1.3624Z"></path>
    <path id="stair-224" d="M54.4139 60.0327h1.3622v4.8857h-1.3622Z"></path>
    <path id="stair-69" d="M18.2137 111.316v6.069H20.95v-6.069Zm1.3028 1.166h.1308v3.735h-.1308Z"></path>
    <path id="stair-96" d="M14.176 69.4637v5.8536h2.7363v-5.8536Zm1.3027 1.125h.1308v3.6016h-.1308Z"></path>
    <path id="stair-97" d="M52.0882 93.4709v6.0459h2.7363v-6.0459Zm1.3027 1.162h.1309v3.7202h-.1309Z"></path>
    <path id="stair-100" d="M70.3349 93.4707v6.0463h2.7363v-6.0463Zm1.3027 1.162h.1309v3.7202h-.1309Z"></path>
    <path id="stair-101" d="M96.7289 21.8536h-5.8535V24.59h5.8535Zm-1.125 1.3028v.1308h-3.6016v-.1308Z"></path>
    <path id="stair-129" d="M46.6849 43.5374v6.0547h2.7364v-6.0547Zm1.3028 1.1637h.1308v3.7253h-.1308Z"></path>
    <path id="stair-62" d="M28.0307 29.732h-2.7258v-4.1555h2.7258"></path>
    <path id="stair-127" d="M30.3351 39.7077h-6.3573v3.2048h6.3573Zm-1.5627 1.5258v.1533h-3.3123v-.1533Z"></path>
    <path id="stair-128" d="M30.3351 65.8672h-6.3573v3.2048h6.3573Zm-1.5628 1.5258v.1532H25.46v-.1532Z"></path>
    <path id="stair-63" d="M24.7291 87.3812h2.9143v1.2792h-2.9143"></path>
    <path id="stair-130" d="M24.7418 72.3192h2.9143v1.2792h-2.9143"></path>
    <path id="stair-131" d="m84.0534 42.6737-1.4406.0027.0125 3.7271 1.4405-.0027Z"></path>
    <path id="stair-132" d="M83.3833 39.4151h1.2252v-5.4587h-1.2252Z"></path>
    <path id="stair-140" d="M33.3318 94.6163h-1.2787v2.9043h1.2787Z"></path>
    <path id="stair-141" d="M47.7275 94.6592h-1.2787v2.9043h1.2787Z"></path>
    <path id="stair-155" d="M52.5058 20.887v-3.4477h-1.1721v3.4477Z"></path>
    <path id="stair-226" d="M70.98 25.5491V21.945h-1.1722v3.6041Z"></path>
    <path id="stair-134" d="M92.2973 42.9477v5.8536h3.1411v-5.8536Zm1.4954 1.125h.1502v3.6016h-.1502Z"></path>
    <path id="stair-135" d="M12.0115 65.0487h3.2275v1.3764h-3.2275Z"></path>
    <path id="stair-136" d="M53.6835 6.40033h2.9323v1.32034h-2.9323Z"></path>
    <path id="stair-138" d="M53.1803 30.0761h2.9557v-1.229h-2.9557Z"></path>
    <path id="stair-139" d="M78.1769 37.6569H75.299v1.3571h2.8779Z"></path>
    <path id="stair-143" d="M.147886 74.7243v-2.9255H1.55806v2.9255Z"></path>
  </defs>
  
  
  <g id="Second_Floor" class="shadow">
    <g id="Floor-2" class="floor">
      <path d="M33.3813 98.4726v-1.011h-1.259v-2.8613h14.1923v4.8833H33.3813Z"></path>
      <path d="M51.1934 15.3809v2.0781h1.3222v9.9863h18.5528v-2.0937h-1.3223v-9.9707zm7.8281 2.0781h4.5v7.8926h-4.5z"></path>
      <path d="M73.3449 33.558h10.1297v5.8515H73.3449Z"></path>
      <path d="M25.2675 29.6745v9.7168h5.0507v.3847h-5.75v3.2051h6.6387v.1524H18.6171v11.8652h2.0214v2.5566h-2.0214v8.0879h12.5312v.1934h-6.541v3.2031l4.2148.002h2.1954v.2812H27.621v20.0723h5.373V69.3229h-.2519v-.2812h.3339v-3.2051h-.9472v-.1934h.9472V43.1335h-.9531v-.1524h.9531V39.776h-1.6679v-.3847h.8047V37.61h-2.6934v-7.9355zm-3.1407 21.623h8.9649v6.2188h-8.9649v-1.1778h.1914v1.0254h4.1953v-2.8613h-4.1953v.7637h-.1914v-1.9844z"></path>
      <path d="m84.082 39.7734-9.3769.0254.0078 2.9219 9.3206-.0195v-1.5039h.361v.6308h3.3164v.1856h-3.3164V51.25h7.5586v-.8164h.2285v.8164h3.2969v-.8164h.3106v.8164h7.0899v-5.1543h-.893v-.2754h.893v-5.7148H90.9219v.164h-.1817v-.164h-6.3457v.1191h-.3125Zm6.6582 1.3711h.1817v.5332h1.3554v1.1817h3.1875v-1.1817h4.7032v4.1426h.943v.2754h-5.3219v3.4629h-.3106v-.4316h-3.2969v.4316h-.2285v-7.5449h-3.3437v-.1856h2.1308z"></path>
    </g>
    <g id="Obstacles-2" class="building">
      <path d="M21.3459 48.3436h10.6493v.7562H21.3459Z"></path>
      <path d="M20.9989 45.4439h9.8776v.7563h-9.8776z"></path>
      <path d="M21.7642 43.134h8.6429v.4207h-8.6429z"></path>
      <path d="M20.9269 59.8637h4.6571v.5566h-4.6571z"></path>
      <path d="M28.2032 59.8636h4.6572v.5566h-4.6572z"></path>
      <path d="M28.2032 62.7201h4.6572v.5566h-4.6572z"></path>
      <path d="M20.9269 62.7201h4.6571v.5566h-4.6571z"></path>
      <path d="M21.737 65.2226h7.8177v.4207H21.737Z"></path>
      <path d="M24.7317 57.517h1.7046v.4207h-1.7046z"></path>
    </g>
    <g id="Stairs-2" class="stairs">
      <g id="Stairs-2-down">
        <use xlink:href="#stair-62"></use>
        <use xlink:href="#stair-63"></use>
        <use xlink:href="#stair-130"></use>
        <use xlink:href="#stair-131"></use>
        <use xlink:href="#stair-132"></use>
        <use xlink:href="#stair-140"></use>
        <use xlink:href="#stair-141"></use>
        <use xlink:href="#stair-155"></use>
        <use xlink:href="#stair-226"></use>
        <use xlink:href="#stair-135"></use>
        <use xlink:href="#stair-134"></use>
        <path d="M24.3925 56.1803c.0573-.1252.0599-.2865.1523-.3789.0457-.0457.1937-.0289.25-.043.3211-.0802.5136.1322.8047.211.212.0574.4226.0366.5156.2226.0255.0511.167.2512.1211.3672-.0403.1019-.1495.1287-.2188.1953-.0678.0678-.2119.1341-.2968.1485-.085.0144-.5086-.059-.6211-.0586-.1125.0004-.5046-.0384-.6719-.2227-.0772-.085-.0698-.3657-.0351-.4414z"></path>
      </g>
      <g id="Stairs-2-up">
        <use xlink:href="#stair-127"></use>
        <use xlink:href="#stair-128"></use>
        <use xlink:href="#stair-69"></use>
        <use xlink:href="#stair-96"></use>
        <use xlink:href="#stair-97"></use>
        <use xlink:href="#stair-100"></use>
        <use xlink:href="#stair-101"></use>
        <use xlink:href="#stair-129"></use>
      </g>
    </g>
    <g id="Wall-2" class="wall">
      <path d="M28.0518 31.8698v-.4631h-2.7843"></path>
      <path d="M28.0518 33.2588v5.6173h-2.7843"></path>
      <path d="M23.2582 55.8921v-1.389"></path>
      <path d="M24.4157 55.8921v-1.389"></path>
      <path d="M25.5733 55.8921v-1.389"></path>
      <path d="M20.5601 55.0079v-3.6637h-.463"></path>
      <path d="M19.0797 51.3442h-.463"></path>
    </g>
  </g>
  
</svg>